<svg width="70" height="70" viewBox="0 0 70 70" fill="none" xmlns="http://www.w3.org/2000/svg">
<g clip-path="url(#clip0_1_106)">
<rect width="70" height="70" fill="url(#paint0_linear_1_106)"/>
<g filter="url(#filter0_di_1_106)">
<path d="M17.6043 21.25C19.6043 22.45 17.771 31.0833 16.6043 35.25C13.9376 34.4167 8.10429 32.35 6.10429 30.75C4.10429 29.15 5.27095 20.4167 6.10429 16.25C9.10429 17.4167 15.6043 20.05 17.6043 21.25Z" fill="url(#paint1_linear_1_106)"/>
<path d="M-2 50.25C4.20339 40.0833 9.88983 34.25 23.8475 33.25M23.8475 33.25C25.0537 33.75 27.4661 35.55 27.4661 38.75C27.4661 41.95 26.4322 44.0833 25.9153 44.75M23.8475 33.25C27.2887 33.0034 30.5811 33.0065 33.6695 33.1504M59 43.25C57.9661 41.75 52.4402 35.3104 48.1441 34.25M33.6695 33.1504C34.1864 31.3502 34.9102 27.15 33.6695 24.75C32.4288 22.35 30.0508 21.4167 29.017 21.25M33.6695 33.1504C40.0183 33.4461 43.9591 33.217 48.1441 34.25M48.1441 34.25C49.0057 33.5233 53.0034 32.95 55.8983 31.75C58.7932 30.55 56.4153 27.5833 54.8644 26.25" stroke="url(#paint2_linear_1_106)" stroke-width="4"/>
<path d="M37.8456 42.4177C36.8456 38.2875 37.8456 34.4177 41.4583 33.6418C51.9956 32.9177 49.0817 41.8962 51.4271 46.6657C53.3035 50.4814 52.5879 54.5688 51.9956 56.1355C47.2753 53.1453 39.025 47.2889 37.8456 42.4177Z" fill="url(#paint3_linear_1_106)"/>
<circle cx="32" cy="18.25" r="9" fill="url(#paint4_radial_1_106)" stroke="url(#paint5_linear_1_106)" stroke-width="4"/>
<circle cx="24" cy="50.25" r="10" fill="url(#paint6_radial_1_106)" stroke="url(#paint7_linear_1_106)" stroke-width="4"/>
<circle cx="56" cy="25.25" r="7" fill="url(#paint8_radial_1_106)" stroke="url(#paint9_linear_1_106)" stroke-width="4"/>
</g>
</g>
<defs>
<filter id="filter0_di_1_106" x="-7.70728" y="3.25" width="76.7072" height="63" filterUnits="userSpaceOnUse" color-interpolation-filters="sRGB">
<feFlood flood-opacity="0" result="BackgroundImageFix"/>
<feColorMatrix in="SourceAlpha" type="matrix" values="0 0 0 0 0 0 0 0 0 0 0 0 0 0 0 0 0 0 127 0" result="hardAlpha"/>
<feOffset/>
<feGaussianBlur stdDeviation="2"/>
<feComposite in2="hardAlpha" operator="out"/>
<feColorMatrix type="matrix" values="0 0 0 0 0 0 0 0 0 0 0 0 0 0 0 0 0 0 0.4 0"/>
<feBlend mode="normal" in2="BackgroundImageFix" result="effect1_dropShadow_1_106"/>
<feBlend mode="normal" in="SourceGraphic" in2="effect1_dropShadow_1_106" result="shape"/>
<feColorMatrix in="SourceAlpha" type="matrix" values="0 0 0 0 0 0 0 0 0 0 0 0 0 0 0 0 0 0 127 0" result="hardAlpha"/>
<feOffset dy="1"/>
<feGaussianBlur stdDeviation="1.5"/>
<feComposite in2="hardAlpha" operator="arithmetic" k2="-1" k3="1"/>
<feColorMatrix type="matrix" values="0 0 0 0 1 0 0 0 0 1 0 0 0 0 1 0 0 0 0.2 0"/>
<feBlend mode="normal" in2="shape" result="effect2_innerShadow_1_106"/>
</filter>
<linearGradient id="paint0_linear_1_106" x1="35" y1="0" x2="35" y2="70" gradientUnits="userSpaceOnUse">
<stop stop-color="#3E533D"/>
<stop offset="1" stop-color="#242E24"/>
</linearGradient>
<linearGradient id="paint1_linear_1_106" x1="6.60428" y1="15.75" x2="16.6043" y2="34.75" gradientUnits="userSpaceOnUse">
<stop stop-color="#315338"/>
<stop offset="1" stop-color="#466F42"/>
</linearGradient>
<linearGradient id="paint2_linear_1_106" x1="32.6355" y1="28.75" x2="-6.53974" y2="63.5412" gradientUnits="userSpaceOnUse">
<stop stop-color="#774545"/>
<stop offset="1" stop-color="#48332A"/>
</linearGradient>
<linearGradient id="paint3_linear_1_106" x1="41.3289" y1="34.1248" x2="50.9002" y2="56.3597" gradientUnits="userSpaceOnUse">
<stop stop-color="#497745"/>
<stop offset="1" stop-color="#2D5334"/>
</linearGradient>
<radialGradient id="paint4_radial_1_106" cx="0" cy="0" r="1" gradientUnits="userSpaceOnUse" gradientTransform="translate(30.7647 13.3088) rotate(85.2364) scale(14.8749)">
<stop stop-color="#E0405C"/>
<stop offset="1" stop-color="#B31C15"/>
</radialGradient>
<linearGradient id="paint5_linear_1_106" x1="32" y1="11.25" x2="32" y2="25.25" gradientUnits="userSpaceOnUse">
<stop stop-color="#8C2C2E"/>
<stop offset="1" stop-color="#782526"/>
</linearGradient>
<radialGradient id="paint6_radial_1_106" cx="0" cy="0" r="1" gradientUnits="userSpaceOnUse" gradientTransform="translate(22.5882 44.6029) rotate(85.2364) scale(16.9999)">
<stop stop-color="#E0405C"/>
<stop offset="1" stop-color="#B31C15"/>
</radialGradient>
<linearGradient id="paint7_linear_1_106" x1="24" y1="42.25" x2="24" y2="58.25" gradientUnits="userSpaceOnUse">
<stop stop-color="#8C2C2E"/>
<stop offset="1" stop-color="#782526"/>
</linearGradient>
<radialGradient id="paint8_radial_1_106" cx="0" cy="0" r="1" gradientUnits="userSpaceOnUse" gradientTransform="translate(55.1176 21.7206) rotate(85.2364) scale(10.6249)">
<stop stop-color="#E0405C"/>
<stop offset="1" stop-color="#B31C15"/>
</radialGradient>
<linearGradient id="paint9_linear_1_106" x1="56" y1="20.25" x2="56" y2="30.25" gradientUnits="userSpaceOnUse">
<stop stop-color="#8C2C2E"/>
<stop offset="1" stop-color="#782526"/>
</linearGradient>
<clipPath id="clip0_1_106">
<rect width="70" height="70" fill="white"/>
</clipPath>
</defs>
</svg>
