<svg width="64" height="64" viewBox="0 0 64 64" fill="none" xmlns="http://www.w3.org/2000/svg">
<g clip-path="url(#clip0_1_106)">
<rect width="64" height="64" fill="url(#paint0_linear_1_106)"/>
<g filter="url(#filter0_di_1_106)">
<path d="M13.6043 18C15.6043 19.2 13.771 27.8333 12.6043 32C9.93762 31.1667 4.10429 29.1 2.10429 27.5C0.104288 25.9 1.27095 17.1667 2.10429 13C5.10429 14.1667 11.6043 16.8 13.6043 18Z" fill="url(#paint1_linear_1_106)"/>
<path d="M-6 47C0.20339 36.8333 5.88983 31 19.8475 30M19.8475 30C21.0537 30.5 23.4661 32.3 23.4661 35.5C23.4661 38.7 22.4322 40.8333 21.9153 41.5M19.8475 30C23.2887 29.7534 26.5811 29.7565 29.6695 29.9004M55 40C53.9661 38.5 48.4402 32.0604 44.1441 31M29.6695 29.9004C30.1864 28.1002 30.9102 23.9 29.6695 21.5C28.4288 19.1 26.0508 18.1667 25.017 18M29.6695 29.9004C36.0183 30.1961 39.9591 29.967 44.1441 31M44.1441 31C45.0057 30.2733 49.0034 29.7 51.8983 28.5C54.7932 27.3 52.4153 24.3333 50.8644 23" stroke="url(#paint2_linear_1_106)" stroke-width="4"/>
<path d="M33.8456 39.1677C32.8456 35.0375 33.8456 31.1677 37.4583 30.3918C47.9956 29.6677 45.0817 38.6462 47.4271 43.4157C49.3035 47.2314 48.5879 51.3188 47.9956 52.8855C43.2753 49.8953 35.025 44.0389 33.8456 39.1677Z" fill="url(#paint3_linear_1_106)"/>
<circle cx="28" cy="15" r="9" fill="url(#paint4_radial_1_106)" stroke="url(#paint5_linear_1_106)" stroke-width="4"/>
<circle cx="20" cy="47" r="10" fill="url(#paint6_radial_1_106)" stroke="url(#paint7_linear_1_106)" stroke-width="4"/>
<circle cx="52" cy="22" r="7" fill="url(#paint8_radial_1_106)" stroke="url(#paint9_linear_1_106)" stroke-width="4"/>
</g>
</g>
<defs>
<filter id="filter0_di_1_106" x="-11.7073" y="0" width="76.7072" height="63" filterUnits="userSpaceOnUse" color-interpolation-filters="sRGB">
<feFlood flood-opacity="0" result="BackgroundImageFix"/>
<feColorMatrix in="SourceAlpha" type="matrix" values="0 0 0 0 0 0 0 0 0 0 0 0 0 0 0 0 0 0 127 0" result="hardAlpha"/>
<feOffset/>
<feGaussianBlur stdDeviation="2"/>
<feComposite in2="hardAlpha" operator="out"/>
<feColorMatrix type="matrix" values="0 0 0 0 0 0 0 0 0 0 0 0 0 0 0 0 0 0 0.4 0"/>
<feBlend mode="normal" in2="BackgroundImageFix" result="effect1_dropShadow_1_106"/>
<feBlend mode="normal" in="SourceGraphic" in2="effect1_dropShadow_1_106" result="shape"/>
<feColorMatrix in="SourceAlpha" type="matrix" values="0 0 0 0 0 0 0 0 0 0 0 0 0 0 0 0 0 0 127 0" result="hardAlpha"/>
<feOffset dy="1"/>
<feGaussianBlur stdDeviation="1.5"/>
<feComposite in2="hardAlpha" operator="arithmetic" k2="-1" k3="1"/>
<feColorMatrix type="matrix" values="0 0 0 0 1 0 0 0 0 1 0 0 0 0 1 0 0 0 0.2 0"/>
<feBlend mode="normal" in2="shape" result="effect2_innerShadow_1_106"/>
</filter>
<linearGradient id="paint0_linear_1_106" x1="32" y1="0" x2="32" y2="64" gradientUnits="userSpaceOnUse">
<stop stop-color="#3E533D"/>
<stop offset="1" stop-color="#242E24"/>
</linearGradient>
<linearGradient id="paint1_linear_1_106" x1="2.60428" y1="12.5" x2="12.6043" y2="31.5" gradientUnits="userSpaceOnUse">
<stop stop-color="#315338"/>
<stop offset="1" stop-color="#466F42"/>
</linearGradient>
<linearGradient id="paint2_linear_1_106" x1="28.6355" y1="25.5" x2="-10.5397" y2="60.2912" gradientUnits="userSpaceOnUse">
<stop stop-color="#774545"/>
<stop offset="1" stop-color="#48332A"/>
</linearGradient>
<linearGradient id="paint3_linear_1_106" x1="37.3289" y1="30.8748" x2="46.9002" y2="53.1097" gradientUnits="userSpaceOnUse">
<stop stop-color="#497745"/>
<stop offset="1" stop-color="#2D5334"/>
</linearGradient>
<radialGradient id="paint4_radial_1_106" cx="0" cy="0" r="1" gradientUnits="userSpaceOnUse" gradientTransform="translate(26.7647 10.0588) rotate(85.2364) scale(14.8749)">
<stop stop-color="#E0405C"/>
<stop offset="1" stop-color="#B31C15"/>
</radialGradient>
<linearGradient id="paint5_linear_1_106" x1="28" y1="8" x2="28" y2="22" gradientUnits="userSpaceOnUse">
<stop stop-color="#8C2C2E"/>
<stop offset="1" stop-color="#782526"/>
</linearGradient>
<radialGradient id="paint6_radial_1_106" cx="0" cy="0" r="1" gradientUnits="userSpaceOnUse" gradientTransform="translate(18.5882 41.3529) rotate(85.2364) scale(16.9999)">
<stop stop-color="#E0405C"/>
<stop offset="1" stop-color="#B31C15"/>
</radialGradient>
<linearGradient id="paint7_linear_1_106" x1="20" y1="39" x2="20" y2="55" gradientUnits="userSpaceOnUse">
<stop stop-color="#8C2C2E"/>
<stop offset="1" stop-color="#782526"/>
</linearGradient>
<radialGradient id="paint8_radial_1_106" cx="0" cy="0" r="1" gradientUnits="userSpaceOnUse" gradientTransform="translate(51.1176 18.4706) rotate(85.2364) scale(10.6249)">
<stop stop-color="#E0405C"/>
<stop offset="1" stop-color="#B31C15"/>
</radialGradient>
<linearGradient id="paint9_linear_1_106" x1="52" y1="17" x2="52" y2="27" gradientUnits="userSpaceOnUse">
<stop stop-color="#8C2C2E"/>
<stop offset="1" stop-color="#782526"/>
</linearGradient>
<clipPath id="clip0_1_106">
<rect width="64" height="64" fill="white"/>
</clipPath>
</defs>
</svg>
