<svg width="95" height="81" viewBox="0 0 95 81" fill="none" xmlns="http://www.w3.org/2000/svg">
<g filter="url(#filter0_di_1_80)">
<path d="M41.6043 18C43.6043 19.2 41.771 27.8333 40.6043 32C37.9376 31.1667 32.1043 29.1 30.1043 27.5C28.1043 25.9 29.271 17.1667 30.1043 13C33.1043 14.1667 39.6043 16.8 41.6043 18Z" fill="url(#paint0_linear_1_80)"/>
<path d="M7.05054 42.6345C7.90013 40.8601 16.6693 40.4303 20.9478 40.4372C20.567 42.6412 19.4951 47.5139 18.2532 49.3729C17.0112 51.2318 8.25308 52.1897 4.02926 52.4363C4.68236 49.9084 6.20096 44.409 7.05054 42.6345Z" fill="url(#paint1_linear_1_80)"/>
<path d="M22 47C28.2034 36.8333 33.8898 31 47.8475 30M47.8475 30C49.0537 30.5 51.4661 32.3 51.4661 35.5C51.4661 38.7 50.4322 40.8333 49.9153 41.5M47.8475 30C51.2888 29.7534 54.5811 29.7565 57.6695 29.9004M83 40C81.9661 38.5 76.4402 32.0604 72.1441 31M57.6695 29.9004C58.1865 28.1002 58.9102 23.9 57.6695 21.5C56.4288 19.1 54.0509 18.1667 53.017 18M57.6695 29.9004C64.0183 30.1961 67.9591 29.967 72.1441 31M72.1441 31C73.0057 30.2733 77.0034 29.7 79.8983 28.5C82.7932 27.3 80.4153 24.3333 78.8644 23" stroke="url(#paint2_linear_1_80)" stroke-width="4"/>
<path d="M27.1818 75.5554C24.5151 64.7221 20.6818 40.7301 20.6818 31.0554C20.6818 20.5554 20.6818 11.0554 18.5 8.55537C15.8333 5.38871 13 16.5554 13 22.0554" stroke="url(#paint3_linear_1_80)" stroke-width="5"/>
<path d="M61.8456 39.1677C60.8456 35.0375 61.8456 31.1677 65.4583 30.3918C75.9956 29.6677 73.0817 38.6462 75.4271 43.4158C77.3035 47.2314 76.5879 51.3188 75.9956 52.8855C71.2753 49.8953 63.025 44.0389 61.8456 39.1677Z" fill="url(#paint4_linear_1_80)"/>
<circle cx="56" cy="15" r="9" fill="url(#paint5_radial_1_80)" stroke="url(#paint6_linear_1_80)" stroke-width="4"/>
<circle cx="48" cy="47" r="10" fill="url(#paint7_radial_1_80)" stroke="url(#paint8_linear_1_80)" stroke-width="4"/>
<circle cx="80" cy="22" r="7" fill="url(#paint9_radial_1_80)" stroke="url(#paint10_linear_1_80)" stroke-width="4"/>
</g>
<defs>
<filter id="filter0_di_1_80" x="0.0292625" y="0" width="92.9707" height="80.153" filterUnits="userSpaceOnUse" color-interpolation-filters="sRGB">
<feFlood flood-opacity="0" result="BackgroundImageFix"/>
<feColorMatrix in="SourceAlpha" type="matrix" values="0 0 0 0 0 0 0 0 0 0 0 0 0 0 0 0 0 0 127 0" result="hardAlpha"/>
<feOffset/>
<feGaussianBlur stdDeviation="2"/>
<feComposite in2="hardAlpha" operator="out"/>
<feColorMatrix type="matrix" values="0 0 0 0 0 0 0 0 0 0 0 0 0 0 0 0 0 0 0.4 0"/>
<feBlend mode="normal" in2="BackgroundImageFix" result="effect1_dropShadow_1_80"/>
<feBlend mode="normal" in="SourceGraphic" in2="effect1_dropShadow_1_80" result="shape"/>
<feColorMatrix in="SourceAlpha" type="matrix" values="0 0 0 0 0 0 0 0 0 0 0 0 0 0 0 0 0 0 127 0" result="hardAlpha"/>
<feOffset dy="1"/>
<feGaussianBlur stdDeviation="1.5"/>
<feComposite in2="hardAlpha" operator="arithmetic" k2="-1" k3="1"/>
<feColorMatrix type="matrix" values="0 0 0 0 1 0 0 0 0 1 0 0 0 0 1 0 0 0 0.2 0"/>
<feBlend mode="normal" in2="shape" result="effect2_innerShadow_1_80"/>
</filter>
<linearGradient id="paint0_linear_1_80" x1="30.6043" y1="12.5" x2="40.6043" y2="31.5" gradientUnits="userSpaceOnUse">
<stop stop-color="#315338"/>
<stop offset="1" stop-color="#466F42"/>
</linearGradient>
<linearGradient id="paint1_linear_1_80" x1="3.45689" y1="52.1617" x2="17.3666" y2="37.5921" gradientUnits="userSpaceOnUse">
<stop stop-color="#315338"/>
<stop offset="1" stop-color="#466F42"/>
</linearGradient>
<linearGradient id="paint2_linear_1_80" x1="56.6356" y1="25.5" x2="17.4603" y2="60.2912" gradientUnits="userSpaceOnUse">
<stop stop-color="#774545"/>
<stop offset="1" stop-color="#48332A"/>
</linearGradient>
<linearGradient id="paint3_linear_1_80" x1="-36.4999" y1="38.5554" x2="-35.295" y2="53.6968" gradientUnits="userSpaceOnUse">
<stop stop-color="#774545"/>
<stop offset="1" stop-color="#48332A"/>
</linearGradient>
<linearGradient id="paint4_linear_1_80" x1="65.3289" y1="30.8748" x2="74.9002" y2="53.1097" gradientUnits="userSpaceOnUse">
<stop stop-color="#497745"/>
<stop offset="1" stop-color="#2D5334"/>
</linearGradient>
<radialGradient id="paint5_radial_1_80" cx="0" cy="0" r="1" gradientUnits="userSpaceOnUse" gradientTransform="translate(54.7647 10.0588) rotate(85.2364) scale(14.8749)">
<stop stop-color="#E0405C"/>
<stop offset="1" stop-color="#B31C15"/>
</radialGradient>
<linearGradient id="paint6_linear_1_80" x1="56" y1="8" x2="56" y2="22" gradientUnits="userSpaceOnUse">
<stop stop-color="#8C2C2E"/>
<stop offset="1" stop-color="#782526"/>
</linearGradient>
<radialGradient id="paint7_radial_1_80" cx="0" cy="0" r="1" gradientUnits="userSpaceOnUse" gradientTransform="translate(46.5882 41.353) rotate(85.2364) scale(16.9999)">
<stop stop-color="#E0405C"/>
<stop offset="1" stop-color="#B31C15"/>
</radialGradient>
<linearGradient id="paint8_linear_1_80" x1="48" y1="39" x2="48" y2="55" gradientUnits="userSpaceOnUse">
<stop stop-color="#8C2C2E"/>
<stop offset="1" stop-color="#782526"/>
</linearGradient>
<radialGradient id="paint9_radial_1_80" cx="0" cy="0" r="1" gradientUnits="userSpaceOnUse" gradientTransform="translate(79.1176 18.4706) rotate(85.2364) scale(10.6249)">
<stop stop-color="#E0405C"/>
<stop offset="1" stop-color="#B31C15"/>
</radialGradient>
<linearGradient id="paint10_linear_1_80" x1="80" y1="17" x2="80" y2="27" gradientUnits="userSpaceOnUse">
<stop stop-color="#8C2C2E"/>
<stop offset="1" stop-color="#782526"/>
</linearGradient>
</defs>
</svg>
